# xmcd CD database file
#
# Track frame offsets:
#	150
#	21298
#	34318
#	48070
#	65245
#	77818
#	94085
#	107828
#	121338
#	146520
#
# Disc length: 2054 seconds
#
# Revision: 5
# Processed by: cddbd v1.5.2PL0 Copyright (c) Steve Scherf et al.
# Submitted via: CDex 1.70beta2
#
DISCID=8708040a
DTITLE=Monica Zetterlund and Bill Evans - Waltz For Debby
DYEAR=1964
DGENRE=Jazz
TTITLE0=Come Rain Or Come Shine
TTITLE1=Jag Vet En Dejlig Rosa
TTITLE2=Once Upon A Summertime
TTITLE3=So Long Big Time
TTITLE4=Monicas Vals
TTITLE5=Lucky To Be Me
TTITLE6=Vindarna Sucka Uti Skogarna
TTITLE7=It Could Happen To You
TTITLE8=Some Other Time
TTITLE9=Om Natten
EXTD=YEAR: 1964
EXTT0=
EXTT1=
EXTT2=
EXTT3=
EXTT4=
EXTT5=
EXTT6=
EXTT7=
EXTT8=
EXTT9=
PLAYORDER=
